<?xml version="1.0" encoding="UTF-8"?>
<svg width="24px" height="24px" viewBox="0 0 24 24" version="1.1" xmlns="http://www.w3.org/2000/svg" xmlns:xlink="http://www.w3.org/1999/xlink">
    <!-- Generator: Sketch 47.1 (45422) - http://www.bohemiancoding.com/sketch -->
    <title>Group 4</title>
    <desc>Created with Sketch.</desc>
    <defs></defs>
    <g id="Ant-Design-Pro-3.0" stroke="none" stroke-width="1" fill="none" fill-rule="evenodd">
        <g id="卡片列表" transform="translate(-288.000000, -223.000000)" fill="#1890FF">
            <g id="Group-9" transform="translate(288.000000, 222.000000)">
                <g id="Group-4">
                    <g id="快速">
                        <g id="Group" transform="translate(0.000000, 0.048862)">
                            <g id="Group-18">
                                <path d="M20.0388293,9.14384439 L15.3204302,17.6790906 C15.1865507,17.9213468 15.0647855,18.140662 14.975636,18.3003308 C14.795784,18.6224213 14.4609299,19.2213323 13.7067315,19.0457578 C13.5809282,19.0163934 13.46258,18.9637822 13.3566567,18.890983 C13.3088204,18.8573364 13.264401,18.8215485 13.2237091,18.7817843 C13.0857914,18.683903 12.8226918,18.4985403 12.5216958,18.2884015 L11.0219966,17.238625 C10.9356428,17.1783668 10.8294089,17.10465 10.7216219,17.0297096 C10.6045161,17.3808587 10.3588115,17.6212795 10.2494714,17.723749 C8.81904164,19.1350745 8.55966947,19.3895657 7.9278575,19.242438 C7.51814266,19.1470037 7.20534293,18.8016664 7.14943037,18.3920945 C7.12644408,18.226614 6.89440696,17.0251214 6.6828711,15.9594392 C6.68069672,15.9493452 6.67883298,15.939557 6.67727984,15.9291572 C6.56825034,15.272435 6.71579738,14.7203235 7.09320718,14.375598 C7.11836783,14.352657 7.14787724,14.3382807 7.1742804,14.3177868 C7.12054221,14.3079987 7.0664934,14.3024929 7.01306584,14.2899519 C6.67106733,14.2104233 6.36665449,14.0801189 6.10914606,13.9036267 L4.7510921,12.9734489 C3.95899745,12.4295961 3.98508998,11.7630859 4.03323692,11.5012535 C4.08138385,11.2400328 4.29416221,10.6071693 5.22976576,10.3719484 L18.3925149,7.07151449 C18.7015871,6.99382123 18.9920218,6.98556251 19.2554321,7.04704418 C19.6632832,7.14217254 19.9925461,7.40461667 20.1581094,7.76677735 C20.266207,8.0044453 20.3948059,8.49935744 20.0388293,9.14384439 Z M7.67966787,15.770406 C7.67966787,15.770406 8.12293025,18.0027106 8.15647779,18.2679076 C8.15709905,18.2703547 8.15803091,18.2715782 8.16020529,18.2721899 C8.24034664,18.2908486 9.53844996,17.0098275 9.53844996,17.0098275 C9.94319479,16.6329846 9.791299,16.4867745 9.30423844,16.0689438 L9.24521962,16.0190856 L9.21136146,15.9961447 C9.08027755,15.9077456 8.9656568,15.8068056 8.86501419,15.6979127 L8.2328916,15.1632363 C8.15119713,15.105731 8.07788955,15.0708608 8.01327947,15.0558727 C7.7191173,14.98705 7.60542843,15.3259639 7.67966787,15.770406 Z M19.0227737,8.01729221 C18.9246161,7.99435129 18.797881,7.99955123 18.6462958,8.03748023 L5.48292542,11.3385259 C4.94150544,11.4749479 4.87441036,11.8420026 5.33227213,12.1567521 L6.68908366,13.0860123 C6.84439633,13.1924582 7.03791593,13.2710691 7.24541366,13.319398 C7.65046911,13.4136087 8.10988401,13.3934207 8.44567001,13.2423165 C8.44567001,13.2423165 16.5063978,9.5784984 16.5424304,9.58675713 C16.5871604,9.59715702 9.79409463,14.0587074 9.79409463,14.0587074 C9.40767669,14.309834 9.3439985,14.6973826 9.5952944,14.999591 L9.86802347,15.2302238 L9.94412667,15.2819173 C10.4047841,15.5923845 11.1540124,16.1084022 11.6093892,16.4265164 L13.1100202,17.4762929 C13.5657076,17.794407 13.9378368,18.057157 13.9375262,18.0602158 C13.9424962,18.0752039 14.1617977,17.6827612 14.427693,17.2016136 L19.146092,8.66636735 C19.3374372,8.31950062 19.2746909,8.07602097 19.0227737,8.01729221 Z" id="Shape"></path>
                                <path d="M12,24.9511377 C5.372583,24.9511377 0,19.5785547 0,12.9511377 C0,6.32372068 5.372583,0.951137673 12,0.951137673 C18.627417,0.951137673 24,6.32372068 24,12.9511377 C24,19.5785547 18.627417,24.9511377 12,24.9511377 Z M12,23.9911377 C18.0972236,23.9911377 23.04,19.0483613 23.04,12.9511377 C23.04,6.85391404 18.0972236,1.91113767 12,1.91113767 C5.90277636,1.91113767 0.96,6.85391404 0.96,12.9511377 C0.96,19.0483613 5.90277636,23.9911377 12,23.9911377 Z" id="Oval-8" fill-rule="nonzero"></path>
                            </g>
                        </g>
                    </g>
                </g>
            </g>
        </g>
    </g>
</svg>